<mxfile host="Electron" modified="2024-05-23T13:51:36.003Z" agent="Mozilla/5.0 (Windows NT 10.0; Win64; x64) AppleWebKit/537.36 (KHTML, like Gecko) draw.io/24.1.0 Chrome/120.0.6099.109 Electron/28.1.0 Safari/537.36" etag="3aaFWQtZTE1Jd0EoqxaB" version="24.1.0" type="device">
  <diagram id="e9R9878xEYKyex9rSlcw" name="第 1 页">
    <mxGraphModel dx="819" dy="478" grid="0" gridSize="10" guides="1" tooltips="1" connect="1" arrows="1" fold="1" page="1" pageScale="1" pageWidth="827" pageHeight="1169" math="0" shadow="0">
      <root>
        <mxCell id="0" />
        <mxCell id="1" parent="0" />
        <mxCell id="Wh-6_hgXqYPCJ9iBXkAS-2" value="&lt;span style=&quot;font-family: &amp;quot;Comic Sans MS&amp;quot;; orphans: 4; text-align: left; white-space-collapse: preserve; background-color: rgb(255, 255, 255);&quot;&gt;&lt;font color=&quot;#b266ff&quot; style=&quot;font-size: 12px;&quot;&gt;Observer&lt;/font&gt;&lt;/span&gt;" style="text;html=1;align=center;verticalAlign=middle;whiteSpace=wrap;rounded=0;fontFamily=Architects Daughter;fontSource=https%3A%2F%2Ffonts.googleapis.com%2Fcss%3Ffamily%3DArchitects%2BDaughter;" parent="1" vertex="1">
          <mxGeometry x="689.5" y="260" width="71" height="25" as="geometry" />
        </mxCell>
        <mxCell id="Wh-6_hgXqYPCJ9iBXkAS-23" value="" style="swimlane;startSize=0;rounded=0;align=center;verticalAlign=middle;fontFamily=Architects Daughter;fontSource=https%3A%2F%2Ffonts.googleapis.com%2Fcss%3Ffamily%3DArchitects%2BDaughter;fontSize=12;fontColor=default;fillColor=none;gradientColor=none;sketch=1;curveFitting=1;jiggle=2;" parent="1" vertex="1">
          <mxGeometry x="84" y="350" width="330" height="240" as="geometry">
            <mxRectangle x="90" y="290" width="50" height="40" as="alternateBounds" />
          </mxGeometry>
        </mxCell>
        <mxCell id="Wh-6_hgXqYPCJ9iBXkAS-10" value="manage&amp;nbsp;&lt;div&gt;observer&lt;/div&gt;" style="swimlane;fontStyle=0;childLayout=stackLayout;horizontal=1;startSize=30;horizontalStack=0;resizeParent=1;resizeParentMax=0;resizeLast=0;collapsible=1;marginBottom=0;whiteSpace=wrap;html=1;rounded=0;align=center;verticalAlign=middle;fontFamily=Architects Daughter;fontSource=https%3A%2F%2Ffonts.googleapis.com%2Fcss%3Ffamily%3DArchitects%2BDaughter;fontSize=12;fillColor=#dae8fc;sketch=1;curveFitting=1;jiggle=2;strokeColor=#6c8ebf;" parent="Wh-6_hgXqYPCJ9iBXkAS-23" vertex="1">
          <mxGeometry x="90.5" y="70" width="99" height="120" as="geometry" />
        </mxCell>
        <mxCell id="Wh-6_hgXqYPCJ9iBXkAS-11" value="add()" style="text;strokeColor=none;fillColor=none;align=left;verticalAlign=middle;spacingLeft=4;spacingRight=4;overflow=hidden;points=[[0,0.5],[1,0.5]];portConstraint=eastwest;rotatable=0;whiteSpace=wrap;html=1;fontFamily=Architects Daughter;fontSource=https%3A%2F%2Ffonts.googleapis.com%2Fcss%3Ffamily%3DArchitects%2BDaughter;fontSize=12;fontColor=default;" parent="Wh-6_hgXqYPCJ9iBXkAS-10" vertex="1">
          <mxGeometry y="30" width="99" height="30" as="geometry" />
        </mxCell>
        <mxCell id="Wh-6_hgXqYPCJ9iBXkAS-12" value="remove()" style="text;strokeColor=none;fillColor=none;align=left;verticalAlign=middle;spacingLeft=4;spacingRight=4;overflow=hidden;points=[[0,0.5],[1,0.5]];portConstraint=eastwest;rotatable=0;whiteSpace=wrap;html=1;fontFamily=Architects Daughter;fontSource=https%3A%2F%2Ffonts.googleapis.com%2Fcss%3Ffamily%3DArchitects%2BDaughter;fontSize=12;fontColor=default;" parent="Wh-6_hgXqYPCJ9iBXkAS-10" vertex="1">
          <mxGeometry y="60" width="99" height="30" as="geometry" />
        </mxCell>
        <mxCell id="Wh-6_hgXqYPCJ9iBXkAS-13" value="notice()" style="text;strokeColor=none;fillColor=none;align=left;verticalAlign=middle;spacingLeft=4;spacingRight=4;overflow=hidden;points=[[0,0.5],[1,0.5]];portConstraint=eastwest;rotatable=0;whiteSpace=wrap;html=1;fontFamily=Architects Daughter;fontSource=https%3A%2F%2Ffonts.googleapis.com%2Fcss%3Ffamily%3DArchitects%2BDaughter;fontSize=12;fontColor=default;" parent="Wh-6_hgXqYPCJ9iBXkAS-10" vertex="1">
          <mxGeometry y="90" width="99" height="30" as="geometry" />
        </mxCell>
        <mxCell id="Wh-6_hgXqYPCJ9iBXkAS-14" value="observers" style="swimlane;fontStyle=0;childLayout=stackLayout;horizontal=1;startSize=30;horizontalStack=0;resizeParent=1;resizeParentMax=0;resizeLast=0;collapsible=1;marginBottom=0;whiteSpace=wrap;html=1;rounded=0;align=center;verticalAlign=middle;fontFamily=Architects Daughter;fontSource=https%3A%2F%2Ffonts.googleapis.com%2Fcss%3Ffamily%3DArchitects%2BDaughter;fontSize=12;fillColor=#d5e8d4;sketch=1;curveFitting=1;jiggle=2;strokeColor=#82b366;" parent="Wh-6_hgXqYPCJ9iBXkAS-23" vertex="1">
          <mxGeometry x="209.5" y="70" width="90" height="120" as="geometry" />
        </mxCell>
        <mxCell id="Wh-6_hgXqYPCJ9iBXkAS-15" value="obs_one" style="text;strokeColor=none;fillColor=none;align=left;verticalAlign=middle;spacingLeft=4;spacingRight=4;overflow=hidden;points=[[0,0.5],[1,0.5]];portConstraint=eastwest;rotatable=0;whiteSpace=wrap;html=1;fontFamily=Architects Daughter;fontSource=https%3A%2F%2Ffonts.googleapis.com%2Fcss%3Ffamily%3DArchitects%2BDaughter;fontSize=12;fontColor=default;" parent="Wh-6_hgXqYPCJ9iBXkAS-14" vertex="1">
          <mxGeometry y="30" width="90" height="30" as="geometry" />
        </mxCell>
        <mxCell id="Wh-6_hgXqYPCJ9iBXkAS-16" value="obs_two" style="text;strokeColor=none;fillColor=none;align=left;verticalAlign=middle;spacingLeft=4;spacingRight=4;overflow=hidden;points=[[0,0.5],[1,0.5]];portConstraint=eastwest;rotatable=0;whiteSpace=wrap;html=1;fontFamily=Architects Daughter;fontSource=https%3A%2F%2Ffonts.googleapis.com%2Fcss%3Ffamily%3DArchitects%2BDaughter;fontSize=12;fontColor=default;" parent="Wh-6_hgXqYPCJ9iBXkAS-14" vertex="1">
          <mxGeometry y="60" width="90" height="30" as="geometry" />
        </mxCell>
        <mxCell id="Wh-6_hgXqYPCJ9iBXkAS-17" value="obs_three" style="text;strokeColor=none;fillColor=none;align=left;verticalAlign=middle;spacingLeft=4;spacingRight=4;overflow=hidden;points=[[0,0.5],[1,0.5]];portConstraint=eastwest;rotatable=0;whiteSpace=wrap;html=1;fontFamily=Architects Daughter;fontSource=https%3A%2F%2Ffonts.googleapis.com%2Fcss%3Ffamily%3DArchitects%2BDaughter;fontSize=12;fontColor=default;" parent="Wh-6_hgXqYPCJ9iBXkAS-14" vertex="1">
          <mxGeometry y="90" width="90" height="30" as="geometry" />
        </mxCell>
        <mxCell id="Wh-6_hgXqYPCJ9iBXkAS-24" value="&lt;font face=&quot;Comic Sans MS&quot;&gt;subject_instance&lt;/font&gt;" style="text;html=1;align=center;verticalAlign=middle;resizable=0;points=[];autosize=1;strokeColor=none;fillColor=none;fontFamily=Architects Daughter;fontSource=https%3A%2F%2Ffonts.googleapis.com%2Fcss%3Ffamily%3DArchitects%2BDaughter;fontSize=12;fontColor=default;" parent="Wh-6_hgXqYPCJ9iBXkAS-23" vertex="1">
          <mxGeometry x="10" y="8" width="120" height="30" as="geometry" />
        </mxCell>
        <mxCell id="Wh-6_hgXqYPCJ9iBXkAS-42" value="state" style="swimlane;fontStyle=0;childLayout=stackLayout;horizontal=1;startSize=30;horizontalStack=0;resizeParent=1;resizeParentMax=0;resizeLast=0;collapsible=1;marginBottom=0;whiteSpace=wrap;html=1;rounded=0;align=center;verticalAlign=middle;fontFamily=Architects Daughter;fontSource=https%3A%2F%2Ffonts.googleapis.com%2Fcss%3Ffamily%3DArchitects%2BDaughter;fontSize=12;fillColor=#d5e8d4;sketch=1;curveFitting=1;jiggle=2;strokeColor=#82b366;" parent="Wh-6_hgXqYPCJ9iBXkAS-23" vertex="1">
          <mxGeometry x="10" y="70" width="60" height="60" as="geometry" />
        </mxCell>
        <mxCell id="Wh-6_hgXqYPCJ9iBXkAS-43" value="state" style="text;strokeColor=none;fillColor=none;align=left;verticalAlign=middle;spacingLeft=4;spacingRight=4;overflow=hidden;points=[[0,0.5],[1,0.5]];portConstraint=eastwest;rotatable=0;whiteSpace=wrap;html=1;fontFamily=Architects Daughter;fontSource=https%3A%2F%2Ffonts.googleapis.com%2Fcss%3Ffamily%3DArchitects%2BDaughter;fontSize=12;fontColor=default;" parent="Wh-6_hgXqYPCJ9iBXkAS-42" vertex="1">
          <mxGeometry y="30" width="60" height="30" as="geometry" />
        </mxCell>
        <mxCell id="Wh-6_hgXqYPCJ9iBXkAS-26" value="&lt;font style=&quot;font-size: 10px;&quot;&gt;state 这里讨论只有一个&lt;/font&gt;" style="text;html=1;align=center;verticalAlign=middle;resizable=0;points=[];autosize=1;strokeColor=none;fillColor=none;fontFamily=Architects Daughter;fontSource=https%3A%2F%2Ffonts.googleapis.com%2Fcss%3Ffamily%3DArchitects%2BDaughter;fontSize=12;fontColor=default;" parent="Wh-6_hgXqYPCJ9iBXkAS-23" vertex="1">
          <mxGeometry x="20" y="205" width="130" height="30" as="geometry" />
        </mxCell>
        <mxCell id="Wh-6_hgXqYPCJ9iBXkAS-6" value="&lt;div style=&quot;orphans: 4; text-align: left;&quot;&gt;&lt;font color=&quot;#b266ff&quot; face=&quot;Comic Sans MS&quot;&gt;&lt;span style=&quot;white-space-collapse: preserve; background-color: rgb(255, 255, 255);&quot;&gt;Subject&lt;/span&gt;&lt;/font&gt;&lt;/div&gt;" style="text;html=1;align=center;verticalAlign=middle;whiteSpace=wrap;rounded=0;fontFamily=Architects Daughter;fontSource=https%3A%2F%2Ffonts.googleapis.com%2Fcss%3Ffamily%3DArchitects%2BDaughter;" parent="1" vertex="1">
          <mxGeometry x="183" y="250" width="64" height="31" as="geometry" />
        </mxCell>
        <mxCell id="Wh-6_hgXqYPCJ9iBXkAS-48" style="edgeStyle=orthogonalEdgeStyle;rounded=0;sketch=1;hachureGap=4;jiggle=2;curveFitting=1;orthogonalLoop=1;jettySize=auto;html=1;exitX=0;exitY=0.25;exitDx=0;exitDy=0;fontFamily=Comic Sans MS;fontSource=https%3A%2F%2Ffonts.googleapis.com%2Fcss%3Ffamily%3DArchitects%2BDaughter;fontSize=12;fontColor=default;entryX=1;entryY=0.25;entryDx=0;entryDy=0;" parent="1" source="Wh-6_hgXqYPCJ9iBXkAS-25" target="Wh-6_hgXqYPCJ9iBXkAS-23" edge="1">
          <mxGeometry relative="1" as="geometry">
            <mxPoint x="420" y="440" as="targetPoint" />
          </mxGeometry>
        </mxCell>
        <mxCell id="tUXpOOq-Zwl8D6INk0d2-2" value="&lt;span style=&quot;font-family: Consolas, Monaco, &amp;quot;Andale Mono&amp;quot;, &amp;quot;Ubuntu Mono&amp;quot;, monospace; font-size: 14px; text-align: left; white-space-collapse: preserve; background-color: rgb(249, 250, 251);&quot;&gt;attach&lt;/span&gt;" style="edgeLabel;html=1;align=center;verticalAlign=middle;resizable=0;points=[];" vertex="1" connectable="0" parent="Wh-6_hgXqYPCJ9iBXkAS-48">
          <mxGeometry x="0.0786" y="-1" relative="1" as="geometry">
            <mxPoint as="offset" />
          </mxGeometry>
        </mxCell>
        <mxCell id="Wh-6_hgXqYPCJ9iBXkAS-25" value="" style="swimlane;startSize=0;rounded=0;align=center;verticalAlign=middle;fontFamily=Architects Daughter;fontSource=https%3A%2F%2Ffonts.googleapis.com%2Fcss%3Ffamily%3DArchitects%2BDaughter;fontSize=12;fontColor=default;fillColor=none;gradientColor=none;sketch=1;curveFitting=1;jiggle=2;" parent="1" vertex="1">
          <mxGeometry x="650" y="350" width="150" height="240" as="geometry" />
        </mxCell>
        <mxCell id="Wh-6_hgXqYPCJ9iBXkAS-3" value="&lt;span style=&quot;font-size: 10px;&quot;&gt;method：&lt;/span&gt;&lt;br&gt;&lt;div style=&quot;&quot;&gt;&lt;span style=&quot;font-size: 10px;&quot;&gt;Responding to notifications&lt;/span&gt;&lt;/div&gt;&lt;div style=&quot;font-size: 10px;&quot;&gt;&lt;br&gt;&lt;/div&gt;" style="rounded=1;whiteSpace=wrap;html=1;sketch=1;hachureGap=4;jiggle=2;curveFitting=1;fontFamily=Architects Daughter;fontSource=https%3A%2F%2Ffonts.googleapis.com%2Fcss%3Ffamily%3DArchitects%2BDaughter;fillColor=#dae8fc;strokeColor=#6c8ebf;" parent="Wh-6_hgXqYPCJ9iBXkAS-25" vertex="1">
          <mxGeometry x="20" y="82.5" width="100" height="65" as="geometry" />
        </mxCell>
        <mxCell id="Wh-6_hgXqYPCJ9iBXkAS-27" value="&lt;font face=&quot;Comic Sans MS&quot;&gt;obs_one&lt;/font&gt;" style="text;html=1;align=center;verticalAlign=middle;resizable=0;points=[];autosize=1;strokeColor=none;fillColor=none;fontFamily=Architects Daughter;fontSource=https%3A%2F%2Ffonts.googleapis.com%2Fcss%3Ffamily%3DArchitects%2BDaughter;fontSize=12;fontColor=default;" parent="Wh-6_hgXqYPCJ9iBXkAS-25" vertex="1">
          <mxGeometry y="8" width="70" height="30" as="geometry" />
        </mxCell>
        <mxCell id="Wh-6_hgXqYPCJ9iBXkAS-47" value="programmer write code" style="text;html=1;align=center;verticalAlign=middle;whiteSpace=wrap;rounded=0;fontFamily=Comic Sans MS;fontSize=12;fontColor=default;" parent="1" vertex="1">
          <mxGeometry x="450" y="250" width="140" height="30" as="geometry" />
        </mxCell>
        <mxCell id="tUXpOOq-Zwl8D6INk0d2-3" value="&lt;font color=&quot;#3399ff&quot; face=&quot;Comic Sans MS&quot;&gt;add() method&lt;/font&gt;" style="text;html=1;align=center;verticalAlign=middle;resizable=0;points=[];autosize=1;strokeColor=none;fillColor=none;fontFamily=Architects Daughter;fontSource=https%3A%2F%2Ffonts.googleapis.com%2Fcss%3Ffamily%3DArchitects%2BDaughter;fontSize=12;fontColor=default;" vertex="1" parent="1">
          <mxGeometry x="475" y="380" width="100" height="30" as="geometry" />
        </mxCell>
        <mxCell id="tUXpOOq-Zwl8D6INk0d2-4" value="" style="endArrow=none;dashed=1;html=1;dashPattern=1 3;strokeWidth=2;rounded=0;" edge="1" parent="1">
          <mxGeometry width="50" height="50" relative="1" as="geometry">
            <mxPoint x="440" y="640" as="sourcePoint" />
            <mxPoint x="440" y="240" as="targetPoint" />
          </mxGeometry>
        </mxCell>
        <mxCell id="tUXpOOq-Zwl8D6INk0d2-5" value="" style="endArrow=none;dashed=1;html=1;dashPattern=1 3;strokeWidth=2;rounded=0;" edge="1" parent="1">
          <mxGeometry width="50" height="50" relative="1" as="geometry">
            <mxPoint x="600" y="640" as="sourcePoint" />
            <mxPoint x="600" y="240" as="targetPoint" />
          </mxGeometry>
        </mxCell>
        <mxCell id="Wh-6_hgXqYPCJ9iBXkAS-38" style="rounded=0;sketch=1;hachureGap=4;jiggle=2;curveFitting=1;orthogonalLoop=1;jettySize=auto;html=1;exitX=1;exitY=0.75;exitDx=0;exitDy=0;fontFamily=Architects Daughter;fontSource=https%3A%2F%2Ffonts.googleapis.com%2Fcss%3Ffamily%3DArchitects%2BDaughter;fontSize=12;fontColor=default;entryX=0;entryY=0.75;entryDx=0;entryDy=0;" parent="1" source="Wh-6_hgXqYPCJ9iBXkAS-23" target="Wh-6_hgXqYPCJ9iBXkAS-25" edge="1">
          <mxGeometry relative="1" as="geometry" />
        </mxCell>
        <mxCell id="Wh-6_hgXqYPCJ9iBXkAS-40" value="&lt;span style=&quot;font-family: &amp;quot;Comic Sans MS&amp;quot;; background-color: rgb(251, 251, 251);&quot;&gt;Fire Event&lt;/span&gt;" style="edgeLabel;html=1;align=center;verticalAlign=middle;resizable=0;points=[];rounded=0;fontFamily=Architects Daughter;fontSource=https%3A%2F%2Ffonts.googleapis.com%2Fcss%3Ffamily%3DArchitects%2BDaughter;fontSize=12;fontColor=default;fillColor=none;gradientColor=none;" parent="Wh-6_hgXqYPCJ9iBXkAS-38" vertex="1" connectable="0">
          <mxGeometry x="-0.1254" y="2" relative="1" as="geometry">
            <mxPoint as="offset" />
          </mxGeometry>
        </mxCell>
        <mxCell id="Wh-6_hgXqYPCJ9iBXkAS-46" value="&lt;font color=&quot;#3399ff&quot; face=&quot;Comic Sans MS&quot;&gt;notice() method&lt;/font&gt;" style="text;html=1;align=center;verticalAlign=middle;resizable=0;points=[];autosize=1;strokeColor=none;fillColor=none;fontFamily=Architects Daughter;fontSource=https%3A%2F%2Ffonts.googleapis.com%2Fcss%3Ffamily%3DArchitects%2BDaughter;fontSize=12;fontColor=default;" parent="1" vertex="1">
          <mxGeometry x="475" y="500" width="110" height="30" as="geometry" />
        </mxCell>
        <mxCell id="tUXpOOq-Zwl8D6INk0d2-8" value="&lt;font style=&quot;font-size: 18px;&quot;&gt;观察者模式&lt;/font&gt;" style="text;html=1;align=center;verticalAlign=middle;resizable=0;points=[];autosize=1;strokeColor=none;fillColor=none;" vertex="1" parent="1">
          <mxGeometry x="84" y="185" width="110" height="40" as="geometry" />
        </mxCell>
        <mxCell id="tUXpOOq-Zwl8D6INk0d2-9" value="&lt;font style=&quot;font-size: 8px;&quot;&gt;咕噜一口温开水&lt;/font&gt;" style="text;html=1;align=center;verticalAlign=middle;resizable=0;points=[];autosize=1;strokeColor=none;fillColor=none;" vertex="1" parent="1">
          <mxGeometry x="720" y="618" width="80" height="30" as="geometry" />
        </mxCell>
      </root>
    </mxGraphModel>
  </diagram>
</mxfile>
